<svg width="12" height="12" viewBox="0 0 12 12" fill="none" xmlns="http://www.w3.org/2000/svg">
<path d="M6 7.5C6.53043 7.5 7.03914 7.28929 7.41421 6.91421C7.78929 6.53914 8 6.03043 8 5.5V2.5C8 1.96957 7.78929 1.46086 7.41421 1.08579C7.03914 0.710714 6.53043 0.5 6 0.5C5.46957 0.5 4.96086 0.710714 4.58579 1.08579C4.21071 1.46086 4 1.96957 4 2.5V5.5C4 6.03043 4.21071 6.53914 4.58579 6.91421C4.96086 7.28929 5.46957 7.5 6 7.5ZM5 2.5C5 2.23478 5.10536 1.98043 5.29289 1.79289C5.48043 1.60536 5.73478 1.5 6 1.5C6.26522 1.5 6.51957 1.60536 6.70711 1.79289C6.89464 1.98043 7 2.23478 7 2.5V5.5C7 5.76522 6.89464 6.01957 6.70711 6.20711C6.51957 6.39464 6.26522 6.5 6 6.5C5.73478 6.5 5.48043 6.39464 5.29289 6.20711C5.10536 6.01957 5 5.76522 5 5.5V2.5ZM10 5.5C10 5.36739 9.94732 5.24021 9.85355 5.14645C9.75979 5.05268 9.63261 5 9.5 5C9.36739 5 9.24021 5.05268 9.14645 5.14645C9.05268 5.24021 9 5.36739 9 5.5C9 6.29565 8.68393 7.05871 8.12132 7.62132C7.55871 8.18393 6.79565 8.5 6 8.5C5.20435 8.5 4.44129 8.18393 3.87868 7.62132C3.31607 7.05871 3 6.29565 3 5.5C3 5.36739 2.94732 5.24021 2.85355 5.14645C2.75979 5.05268 2.63261 5 2.5 5C2.36739 5 2.24021 5.05268 2.14645 5.14645C2.05268 5.24021 2 5.36739 2 5.5C2.00088 6.47365 2.35686 7.41354 3.0012 8.14349C3.64554 8.87343 4.53399 9.3433 5.5 9.465V10.5H4.5C4.36739 10.5 4.24021 10.5527 4.14645 10.6464C4.05268 10.7402 4 10.8674 4 11C4 11.1326 4.05268 11.2598 4.14645 11.3536C4.24021 11.4473 4.36739 11.5 4.5 11.5H7.5C7.63261 11.5 7.75979 11.4473 7.85355 11.3536C7.94732 11.2598 8 11.1326 8 11C8 10.8674 7.94732 10.7402 7.85355 10.6464C7.75979 10.5527 7.63261 10.5 7.5 10.5H6.5V9.465C7.46601 9.3433 8.35446 8.87343 8.9988 8.14349C9.64314 7.41354 9.99912 6.47365 10 5.5Z" fill="black"/>
</svg>
