<svg width="20" height="20" viewBox="0 0 20 20" fill="none" xmlns="http://www.w3.org/2000/svg">
<path d="M20 10C20 15.5228 15.5228 20 10 20C4.47715 20 0 15.5228 0 10C0 4.47715 4.47715 0 10 0C15.5228 0 20 4.47715 20 10Z" fill="#5DB075"/>
<path d="M14.2415 5.49297C14.06 5.44847 13.8537 5.45548 13.6009 5.52398C12.1363 5.92098 6.31432 7.81297 5.83522 8.02497C5.31307 8.25597 5.01177 8.66297 5.00712 9.19697C5.00092 9.91097 5.57642 10.4715 6.25712 10.4475C6.27902 10.447 7.12127 10.4585 7.60087 10.4635C7.60087 10.4635 8.02897 12.604 8.03932 12.6295C8.16427 12.9365 8.45737 13.028 8.71022 12.9175L10.1321 12.292C10.2931 12.4505 11.3753 13.496 11.4915 13.5895C11.8378 13.8675 12.137 13.955 12.5071 13.9645C13.103 13.98 13.6235 13.6295 13.8977 13.058C14.0699 12.6995 14.8722 7.67898 14.9446 7.18098C15.0596 6.39048 15.0336 6.07997 14.7102 5.75847C14.5803 5.62947 14.423 5.53697 14.2415 5.49297ZM14.0071 6.46247C14.0071 6.46247 14.0314 6.55097 13.9602 7.03997C13.7057 8.79097 13.1024 12.3735 12.9759 12.667C12.8894 12.868 12.7162 12.9695 12.5227 12.964C12.3525 12.9595 12.2677 12.9295 12.1165 12.808C12.0387 12.7455 11.6886 12.413 11.1946 11.9325C11.1884 11.9265 10.2093 10.971 10.2093 10.971C10.1139 10.876 10.0242 10.8195 9.83622 10.8175C9.72692 10.8175 9.58267 10.9005 9.58267 10.9005L8.83077 11.537L8.56962 10.26L11.7102 8.91598C11.9639 8.80698 12.085 8.51297 11.9759 8.25947C11.8668 8.00547 11.5733 7.88448 11.3196 7.99348L7.91337 9.46298C7.71942 9.46198 6.27417 9.44547 6.22587 9.44747C6.11462 9.45097 6.00587 9.34197 6.00712 9.19697C6.00812 9.08097 6.05927 9.01198 6.24147 8.93148C6.66377 8.74448 12.4154 6.87897 13.835 6.49447C13.9689 6.45797 14.0071 6.46247 14.0071 6.46247Z" fill="#2A343D"/>
</svg>
